<svg id="图层_1" data-name="图层 1" xmlns="http://www.w3.org/2000/svg" viewBox="0 0 32.68 57.57"><defs><style>.cls-1{fill:#f6d2a2;}.cls-2{fill:#010101;}.cls-3{fill:#c7b199;}.cls-4{fill:#74cddd;}.cls-5{fill:#fff;}.cls-6{fill:#231f20;}</style></defs><title>画板 1</title><path class="cls-1" d="M12.85,48.15c-1.28,1.14-1.91-.66-2.06-1.56s-.58-.71.06-1.49a18.38,18.38,0,0,1,1.36-1.43,4.83,4.83,0,0,1,1.67,2.88c.08.58-.08,2-1,1.57"/><path class="cls-2" d="M11.34,48.38a1,1,0,0,0,.42.27,1.11,1.11,0,0,0,1.11-.29.74.74,0,0,0,.7-.12,2.08,2.08,0,0,0,.44-1.7,4.91,4.91,0,0,0-1.73-3l-.09-.1-.1.09A11.33,11.33,0,0,0,11,44.68L10.7,45c-.48.53-.46.7-.27,1a2,2,0,0,1,.19.57A3.75,3.75,0,0,0,11.34,48.38Zm1.07-4.25a4.5,4.5,0,0,1,1.27,2.47A1.77,1.77,0,0,1,13.35,48a.46.46,0,0,1-.48,0L12.81,48l-.08.07a.9.9,0,0,1-.84.3,2.39,2.39,0,0,1-1-1.77,2.36,2.36,0,0,0-.21-.65c-.11-.23-.13-.28.25-.7l.32-.31a10.89,10.89,0,0,1,.93-1l.2.2Z"/><path class="cls-3" d="M12.85,48.15a1.34,1.34,0,0,1-.2-.75"/><path class="cls-2" d="M12.73,48.26a.18.18,0,0,0,.23.08.18.18,0,0,0,.07-.23L13,48a1,1,0,0,1-.14-.55.17.17,0,0,0-.14-.19.16.16,0,0,0-.18.14h0a1.13,1.13,0,0,0,.17.74l.07.08h0Z"/><path class="cls-4" d="M24.62,31.11c5.86,3.41,8.43-5.9,2.29-7.29Z"/><path class="cls-2" d="M24.43,31.19l.09.09c1.67,1,3.27,1,4.47.13a4.37,4.37,0,0,0-2-7.69l-.14,0Zm4.78-6a3.86,3.86,0,0,1,1,1.93,4,4,0,0,1-1.39,4,3.63,3.63,0,0,1-4-.08l2.23-7a4.5,4.5,0,0,1,2.11,1.17Z"/><path class="cls-4" d="M9.57,5.21C8.54-1-.54,1.34,2.15,7.11Z"/><path class="cls-2" d="M2.06,7.3l7.7-2,0-.14a4.26,4.26,0,0,0-3-3.67A4.37,4.37,0,0,0,2.29,2.82,3.79,3.79,0,0,0,2,7.18ZM9.39,5.09,2.25,6.92A3.52,3.52,0,0,1,2.54,3a4.05,4.05,0,0,1,4.08-1.2A3.86,3.86,0,0,1,9.39,5.09Z"/><path class="cls-2" d="M26.07,29.31c1,.33,1.81.32,2.16-.75s-.39-1.57-1.32-1.88Z"/><path class="cls-2" d="M4.85,6.38c-.31-1-.28-1.81.8-2.14S7.21,4.66,7.5,5.6Z"/><path class="cls-4" d="M21.09,12c-4.58-4.67-9.5-8.41-16.27-6.28-7,2.87-11.73,9-17.39,13.81-4.83,4.2-10.69,8.77-12.85,15-2.28,6.56,2.09,13.24,6.73,17.68C-15,55.77-9.61,59-4.31,57.78c6.22-1.4,10.85-8.15,15-12.52,4.89-5.19,11.56-8.61,14.91-15.16,3.46-6.8.05-12.62-4.48-18"/><path class="cls-2" d="M-19.62,51.64l.79.8A23.51,23.51,0,0,0-12.2,57a12.58,12.58,0,0,0,7.9,1c5-1.12,9-5.69,12.52-9.72.88-1,1.72-2,2.54-2.84a63,63,0,0,1,5.64-5.07c3.5-2.89,7.12-5.87,9.29-10.12a12,12,0,0,0,.8-9.64C25.64,18,24,15.39,21.22,12h0C16.74,7.37,11.64,3.45,4.77,5.6h0c-5.15,2.1-9.12,6-13,9.67-1.43,1.4-2.91,2.85-4.46,4.16-.44.43-.94.82-1.41,1.22-4.46,3.84-9.53,8.18-11.49,13.88C-28,41.67-22.77,48.42-19.62,51.64ZM21,12.16c4.35,5.27,7.94,11,4.45,17.87-2.14,4.19-5.74,7.15-9.18,10a60.6,60.6,0,0,0-5.67,5.09C9.75,46,8.91,47,8,48,4.54,52,.59,56.51-4.31,57.61c-2.07.47-7.6.86-14.22-5.48-2.88-2.73-9.26-9.9-6.66-17.51,1.94-5.62,7-9.93,11.39-13.74.45-.44,1-.82,1.41-1.22,1.48-1.31,3-2.73,4.43-4.13C-4.16,11.81-.17,8,4.9,5.92a11.68,11.68,0,0,1,8.82.6A27,27,0,0,1,21,12.16Z"/><path class="cls-5" d="M14,17.36c-5.7,3.94-12.22-5.29-6.17-9,5.41-3.29,11,4.82,6.17,9"/><path class="cls-2" d="M7.11,16.69a6.24,6.24,0,0,0,1.67,1.22,5,5,0,0,0,5.32-.42h0A5.17,5.17,0,0,0,16,13.68a6.12,6.12,0,0,0-1.24-3.85,5.73,5.73,0,0,0-3-2.18,4.92,4.92,0,0,0-4,.61,4.75,4.75,0,0,0-2.48,4.38A6.32,6.32,0,0,0,7.11,16.69Zm6.8.54a4.74,4.74,0,0,1-5,.4,6.19,6.19,0,0,1-3.34-5A4.51,4.51,0,0,1,7.91,8.53,4.83,4.83,0,0,1,14.49,10,5.22,5.22,0,0,1,13.91,17.23Z"/><path class="cls-5" d="M22.54,27.67c-5.3,3.07-10.86-4.8-6.36-8.71,5.4-4.69,12.63,4.62,6.36,8.71"/><path class="cls-2" d="M16.19,26.78a6,6,0,0,0,2.43,1.51,4.93,4.93,0,0,0,4-.5h0A5,5,0,0,0,25.09,23a6.46,6.46,0,0,0-3.89-5.13,4.85,4.85,0,0,0-5.12,1c-2.4,2.08-2,5.17-.57,7.17A6.24,6.24,0,0,0,16.19,26.78Zm6.25.74a4.94,4.94,0,0,1-6.71-1.69c-1.34-1.89-1.76-4.8.49-6.75A4.51,4.51,0,0,1,21,18.16,6.12,6.12,0,0,1,24.73,23,4.69,4.69,0,0,1,22.44,27.52Z"/><path class="cls-5" d="M7.21,22.19a14.53,14.53,0,0,0-2,2,1.79,1.79,0,0,0,.27,1.21,1.59,1.59,0,0,0,1.48.21,20.22,20.22,0,0,0,2.23-2.3Z"/><path class="cls-2" d="M5.29,25.4l0,0A1.67,1.67,0,0,0,7,25.65H7a10.33,10.33,0,0,0,1.57-1.53c.24-.24.46-.52.7-.77l.19-.19L7.19,21.94l-.11.11a6.62,6.62,0,0,1-.68.6A7.46,7.46,0,0,0,5,24l0,0a1.38,1.38,0,0,0,.16,1.05l.12.27Zm1.55,0a1.39,1.39,0,0,1-1.28-.16l-.11-.25a1.07,1.07,0,0,1-.12-.8,7.69,7.69,0,0,1,1.29-1.26,4.6,4.6,0,0,1,.62-.55l1.66.91a4.68,4.68,0,0,0-.56.62,9.54,9.54,0,0,1-1.49,1.49Z"/><ellipse class="cls-2" cx="21.41" cy="25.11" rx="1.74" ry="1.61" transform="translate(-11.46 22.14) rotate(-44.38)"/><ellipse class="cls-5" cx="20.61" cy="24.87" rx="0.44" ry="0.38" transform="translate(-11.51 21.51) rotate(-44.38)"/><ellipse class="cls-2" cx="12.3" cy="15.18" rx="1.74" ry="1.58" transform="translate(-7.11 12.93) rotate(-44.38)"/><ellipse class="cls-5" cx="11.51" cy="14.95" rx="0.44" ry="0.37" transform="translate(-7.17 12.32) rotate(-44.38)"/><path class="cls-5" d="M10.47,25.32C9.75,27,6.55,28.61,7,25.5a21.05,21.05,0,0,0,2.23-2.3Z"/><path class="cls-2" d="M7.17,27.17a.86.86,0,0,0,.42.25c.85.24,2.48-.69,3.07-2l.06-.05L9.31,22.92l-.15.16a4.6,4.6,0,0,0-.7.77,10.26,10.26,0,0,1-1.53,1.49l0,.05,0,0A1.9,1.9,0,0,0,7.17,27.17Zm3.14-1.82c-.49,1-1.88,2-2.64,1.74-.54-.15-.57-.88-.49-1.49a11.35,11.35,0,0,0,1.53-1.49,3.93,3.93,0,0,0,.54-.61Z"/><path class="cls-1" d="M12.66,22.88a2.08,2.08,0,0,1-.31,2.92,2.27,2.27,0,0,1-.57.32c-1.79.49-1.93-2.18-2.91-3-1-1-2.92-.81-2.83-2.51.09-1.89,2.32-1.5,3.78-.93Z"/><path class="cls-6" d="M6.26,21.85a3.61,3.61,0,0,0,1.19.68,4,4,0,0,1,1.28.75h0a3.68,3.68,0,0,1,.82,1.3c.45,1,1,2.07,2.26,1.71A1.94,1.94,0,0,0,13.17,25a2.33,2.33,0,0,0-.38-2.16h0L9.88,19.57h0c-1.07-.45-2.51-.74-3.34-.22a1.72,1.72,0,0,0-.35,2.41ZM8.94,23a4.34,4.34,0,0,0-1.38-.8c-.81-.34-1.45-.61-1.4-1.57a1.18,1.18,0,0,1,.52-1c.72-.46,2.07-.17,3,.23L12.51,23a2,2,0,0,1,.31,1.85,1.64,1.64,0,0,1-1.13,1.1c-1,.27-1.44-.6-1.89-1.54A3.88,3.88,0,0,0,8.94,23Z"/><path class="cls-2" d="M12.85,23c1.69-1.51-1.13-4.8-2.84-3.84S11.5,24,12.85,23Z"/></svg>