<svg id="图层_1" data-name="图层 1" xmlns="http://www.w3.org/2000/svg" viewBox="0 0 404 151"><defs><style>.cls-1{fill:#054068;}.cls-2{fill:#072d63;}</style></defs><title>画板 1</title><path class="cls-1" d="M104.4,29.55H94.13l-.56,4.36h5.77a8.16,8.16,0,0,1,1.54.14,1.87,1.87,0,0,1,.85.84,4.41,4.41,0,0,1,0,1.55l-3.1,20.81H70.79l3.38-23.34h8.15l.7-4.36H72.9l.56-3.23H105ZM75.15,54H95.26L96.1,48H87.81l1.54-10.83H85.56a26.68,26.68,0,0,1-1.69,5.77A33.79,33.79,0,0,1,80.77,49H76a31.68,31.68,0,0,0,2.39-3.52,21.61,21.61,0,0,0,2.11-4.22,24.07,24.07,0,0,0,1.27-4.08H77.54ZM89.77,33.91l.71-4.36H86.82l-.7,4.36Zm7.32,3.23H93.15L92,44.74h4.65l1-7v-.43C97.65,37.19,97.46,37.14,97.09,37.14Z"/><path class="cls-1" d="M140.26,31.66H126.62l-.42,2.39h10a3.14,3.14,0,0,1,1.41.28c.37.28.46.89.28,1.83l-3,21.8h-7.74l-1-3.24h5.06l2.39-17q0-.57-.42-.57H114L111.15,58h-4.08l3.24-23.91h11.81l.28-2.39H108.9l.42-3.09h13.5l.56-3.1h4.08l-.42,3.1h13.64Zm-9.42,19.41H124l-.71,5.06h-3.93l.7-5.06h-7l.42-2.82h7l.28-3h-6.33l.43-2.81h3.79l-2-4.08h3.8a31.22,31.22,0,0,0,2.11,4.08h1.27a29.34,29.34,0,0,0,2.53-4.08h3.93c-1,1.78-1.82,3.14-2.39,4.08h3.52L131,45.3h-6.33l-.42,3h7Z"/><path class="cls-1" d="M175.42,38.27H163c-.28.94-.66,2-1.12,3.23h3.79a71.76,71.76,0,0,0,4.08,8q2.39,4.36,5.06,8.3h-5.62q-1.83-3.24-3.94-7.74-2.11-4.35-3.66-8.3a42.41,42.41,0,0,1-4.92,8.86,35.74,35.74,0,0,1-6.89,7.18h-6.19a43.8,43.8,0,0,0,9.14-9,33.11,33.11,0,0,0,5.63-10.55H147.15l.42-3.52h11.81a44.32,44.32,0,0,0,1-9h4.5a51.5,51.5,0,0,1-1,9H176Z"/><path class="cls-1" d="M197.92,46l-.15.14h14.07l-.42,3.1H197.35l-1.12,8.58h-8.58l-1-3.1h5.9l.85-5.48H179.07l.42-3.1h14.35L194,44.6q3.93-1.83,6.19-3.1c.28-.18.37-.32.28-.42H187.51l-.84-2.95h19.12c.75,0,1.08.28,1,.84a3.36,3.36,0,0,1-.28,1.69,2.65,2.65,0,0,1-1.26,1.41C202.6,43.57,200.17,44.88,197.92,46Zm11.67-13.5a12.1,12.1,0,0,1,2.11.14,1.81,1.81,0,0,1,1,.85,7.62,7.62,0,0,1-.14,2.39L212,40.8H207.9l.84-4.64a.5.5,0,0,0-.56-.56H185.54l-.7,5.06H180.9L182,32.5h19.13a60.35,60.35,0,0,0,4.92-6.89h5.06q-1.83,2.67-5.34,6.89Zm-18.14-1.12h-4.36a53.62,53.62,0,0,1-2.25-5.77h4.08Q190.18,28.72,191.45,31.38Zm8.72,0h-4.36q-1-2.82-2-5.77h4.08C199,28.24,199.69,30.16,200.17,31.38Z"/><path class="cls-1" d="M242.19,34.9l-2,15.32,3.53-2.34-.85,4.86-7.63,5,2.68-18.74h-3.53l.42-4.15Zm-1.42-9.18,2,7.56h-4l-1.69-7.56Zm24.65,11.14L265,40.24h-8.15L254.31,58H250l2.67-17.72h-8.44l.56-3.38h8.44l1.69-11.25H259L257.4,36.86Z"/><path class="cls-1" d="M280.62,26.32a27.33,27.33,0,0,1-3.53,8.11l-3.26,24h-3.39L273,39.89a26.21,26.21,0,0,1-3.53,2.67l.81-5.19A13.19,13.19,0,0,0,272.61,35a33.72,33.72,0,0,0,2.31-3.92,20.34,20.34,0,0,0,1.76-4.75Zm3.82,32h-6.37l1.33-12.39h17.53a2.12,2.12,0,0,1,1.8.65,5.69,5.69,0,0,1,.13,2.73l-.85,9Zm7.95-29.16h10l-.32,3.74H279.28l.31-3.74h9.58l-.42-3.91H292Zm6.15,14.47H279.69l.46-3H299Zm.7-5.2H280.39l.47-2.95H299.7ZM282.16,49.13l-.6,5.95h13.69l.36-5.31c.08-.42,0-.64-.36-.64Z"/><path class="cls-1" d="M319.71,29.8l-4.15,7.11q2.63,5.85,2.63,8.92a5.87,5.87,0,0,1-.28,1.81,4.87,4.87,0,0,1-.69,1.39,3.94,3.94,0,0,1-1.38,1.11,4.9,4.9,0,0,1-2.5.56h-2.21l-1-3.2h1.94a2.58,2.58,0,0,0,1.66-.56,1.86,1.86,0,0,0,.69-1.53q0-3.07-2.35-8.5A66.52,66.52,0,0,0,316,29.24c.1-.18,0-.28-.27-.28h-3.18l-3.88,28.57H304.9l4.43-31.63h9.55a2,2,0,0,1,1.11.27,1.18,1.18,0,0,1,.27.84A6.85,6.85,0,0,1,319.71,29.8Zm-2.19,16,.36-3.28H337.7l-.36,3.28h-5.41l-.84,8.47h5.65L335.66,58h-8.17l1.32-12.27h-3.6A25.27,25.27,0,0,1,318.84,58h-4.68q4.8-5.19,6.12-7.78A20.76,20.76,0,0,0,322,45.77Zm18.85-16.92a4.44,4.44,0,0,1,2.15.39,1.78,1.78,0,0,1,.33,1.57l-1,5.49h-3.64l.82-4.19q.16-.39-.33-.39H323.62l-.83,4.58h-3.65l1.33-7.45h7l-1-3.4h3.81l1.16,3.4Zm-.92,9.61H321.39l.35-3.06H335.8Z"/><path class="cls-2" d="M58.32,111.72l-.23.24H81.52l-.7,5.15H57.38l-1.87,14.3H41.21l-1.64-5.16h9.85l1.4-9.14H26.92l.7-5.15h23.9l.24-2.58q6.56-3,10.31-5.16c.47-.31.62-.54.47-.7H41L39.57,98.6H71.45c1.25,0,1.79.47,1.64,1.4a5.7,5.7,0,0,1-.47,2.82,4.37,4.37,0,0,1-2.11,2.34Q63.94,108.91,58.32,111.72Zm19.45-22.5a19,19,0,0,1,3.52.24,3,3,0,0,1,1.64,1.4,12.92,12.92,0,0,1-.23,4l-.94,8.2H75l1.41-7.73a.83.83,0,0,0-.94-.94H37.7l-1.18,8.44H30l1.88-13.6H63.71a102.65,102.65,0,0,0,8.21-11.48h8.43q-3,4.45-8.9,11.48ZM47.54,87.35H40.27a96.34,96.34,0,0,1-3.75-9.61h6.8Q45.43,82.9,47.54,87.35Zm14.53,0H54.81q-1.65-4.69-3.29-9.61h6.8Q60.9,84.3,62.07,87.35Z"/><path class="cls-2" d="M136.83,80.06a8.06,8.06,0,0,1,3,.47c.76.47,1,1.63.69,3.5q-3.9,21-7.11,42.7h6l-1.83,5.13H126.06q4.81-31.5,7.33-45a1.47,1.47,0,0,0,0-1.17c-.15-.31-.61-.47-1.37-.47H102.47a185.9,185.9,0,0,1-2.52,18.9q-2.06,10.27-4.81,19.37a166,166,0,0,0,16.72-16.33q-6-11.91-8.25-17h6.19q1.83,4.44,6,12.6a92.8,92.8,0,0,0,8.47-12.6h6.41q-4.35,6.76-5.95,8.87c-1.07,1.56-2.14,3-3.21,4.43-1.22,1.4-2.36,2.73-3.43,4q4.58,9.09,8.93,16.56h-7.1L114.15,112a93.88,93.88,0,0,1-11.45,11.89H95.14c-.92,3.12-1.76,5.76-2.52,7.94H85.29a148.25,148.25,0,0,0,6-18.67,168.79,168.79,0,0,0,3.66-18.67q1.14-8.38,1.6-14.46Z"/><path class="cls-2" d="M158.45,94.53a56.5,56.5,0,0,1-5.1,9.36h-6.56a52.06,52.06,0,0,0,6.07-9.36Zm33.93,11.33a3.64,3.64,0,0,1,2.58.71c.47.46.62,1.48.47,3l-3.28,22H150l3.75-25.78ZM177.62,92.5H150.43l.47-4.68h9.37l1.41-10.08h6.09l-.23,3h9.14l-.47,4.46h-9.37l-.24,2.58h11.49Zm-20.86,34.22h29.53l.47-2.81H157.23Zm31.17-9.37H158.4l-.47,2.57h29.53Zm.47-7H159.34l-.47,2.57H188.4l.47-2.11A.41.41,0,0,0,188.4,110.32ZM167,92.07l-1.46,11.82h-6.56l1.7-11.82Zm3.16,10.09q-.74-2.7-1.71-7.63H174a50.38,50.38,0,0,0,2.19,7.63ZM203.28,82a6.82,6.82,0,0,1-1.38,4,100,100,0,0,1-8.05,9,104.4,104.4,0,0,0,9.43,8.86h-8.51l-4.83-5.39q-3.69,3.08-6.91,5.39h-8.74A135.31,135.31,0,0,0,187,95.11a74.21,74.21,0,0,1-6.68-9.43h6a56.68,56.68,0,0,0,4.37,5.77,35.76,35.76,0,0,0,5.29-6.74c.16-.12.16-.25,0-.38h-17l.69-4h20.94a5.23,5.23,0,0,1,2.07.39A1.73,1.73,0,0,1,203.28,82Z"/><path class="cls-2" d="M217.7,119.69h8a131,131,0,0,1-10.79,10.08H206Q211.83,125.07,217.7,119.69Zm38.43-28.83c3.29.32,4.38,1.88,3.29,4.69a38.13,38.13,0,0,1-6.33,8,45,45,0,0,0,9.14,5.15l-2.58,5.63a47,47,0,0,1-13.83-9.84l-.47,3.51H225.67l.23-1.87a63.14,63.14,0,0,1-8.67,4.45,93.07,93.07,0,0,1-10.08,3.75l1.17-6.09a45.88,45.88,0,0,0,8.2-2.82,37.94,37.94,0,0,1-2.81-4.92l-3,1.41,1.17-6.1q7.5-2.81,10.78-7.26h6.56a8.92,8.92,0,0,1-1.64,2.34h8.2a6,6,0,0,1,1.88.24c.31.15.47.7.47,1.64a6.64,6.64,0,0,1-1.88,4.45,40.21,40.21,0,0,1-5.86,5.63h14.07a42.19,42.19,0,0,1-7-14.3h6.1a37.68,37.68,0,0,0,2.34,5.86l.47-3.52Zm4.46-9.14a5,5,0,0,1,2.58.47,3.1,3.1,0,0,1,.46,2.58l-.93,7-6.33-.23.23-4.22c.16-.47,0-.71-.47-.71h-37l-.7,5.16h-6.8L213,81.72h21.33l-.94-4h7a29.32,29.32,0,0,0,1.17,4Zm-6.33,35.39H238.09L236,131.88H224.49l-1.64-5.16h6.8l1.41-9.61H213.48l.7-4.92H255ZM218.87,99.77c.78,1.4,1.48,2.58,2.11,3.51l2.58-1.4a32.25,32.25,0,0,1-3.29-4.69,28.22,28.22,0,0,1-4.92,2.58ZM230.35,96a2.82,2.82,0,0,0,.47-.7c0-.16-.23-.24-.7-.24h-6.8l-1.87,1.41h4.22a14.6,14.6,0,0,0,1.4,2.58,21.05,21.05,0,0,1,1.64-1.41Zm12,23.67h7.26q4.45,5.63,8.44,10.08h-8.67Q245.59,124.61,242.31,119.69Zm4-24.37a26.8,26.8,0,0,0,2.58,4.21A36.18,36.18,0,0,0,252.38,96a.67.67,0,0,1,.24-.47c0-.15-.16-.23-.47-.23Z"/><path class="cls-2" d="M268.09,121.33a179.25,179.25,0,0,0,13.83-33.28h6.79a236,236,0,0,1-12.89,33.28Zm28.83,10.31H283.09l-1.41-5.39h8.67l6.8-48.51h7.27ZM314,121.33q-2.1-10.55-6.09-33.28h7q2.58,16.88,6.56,33.28Z"/><path class="cls-2" d="M326.64,129.3l.78-5.57,22.35-6-1,5.57Zm29.11-38.08a229.53,229.53,0,0,1-14.55,18.34l9.61-.93-.78,4.88-21.57,1.63q6.75-7.2,12.74-14.63H330.28A181.14,181.14,0,0,0,343.53,78h7.54a129.93,129.93,0,0,1-10.65,17.65h4.41l2.86-4.41Zm24.12-11.71a5.61,5.61,0,0,1,3.09.69,3.05,3.05,0,0,1,.51,2.53l-6.68,43.39h4.62l-1,5.28H345.71l.77-5.28h4.88l7.19-46.61ZM358,126.12h11.81l1.8-10.79H359.84Zm14.38-15.84L374,99.94H362.15l-1.54,10.34Zm3.34-25.72h-11l-1.8,10.33h11.81l1.55-9.64C376.28,84.79,376.1,84.56,375.76,84.56Z"/></svg>